{
  "accessors": [
    {
      "bufferView": 2,
      "componentType": 5126,
      "count": 65532,
      "max": [
        0.30193677544593811,
        0.19096612930297852,
        0.66861122846603394
      ],
      "min": [
        -0.35737642645835876,
        -0.4764399528503418,
        -0.89621204137802124
      ],
      "type": "VEC3"
    },
    {
      "bufferView": 2,
      "byteOffset": 786384,
      "componentType": 5126,
      "count": 65532,
      "max": [
        0.99992620944976807,
        0.99996739625930786,
        0.99972325563430786
      ],
      "min": [
        -0.99995416402816772,
        -0.99996554851531982,
        -0.99997514486312866
      ],
      "type": "VEC3"
    },
    {
      "bufferView": 3,
      "componentType": 5126,
      "count": 65532,
      "max": [
        0.99992913007736206,
        0.99987179040908813,
        0.99999868869781494,
        -1
      ],
      "min": [
        -0.99998623132705688,
        -0.99999171495437622,
        -0.99999374151229858,
        -1
      ],
      "type": "VEC4"
    },
    {
      "bufferView": 1,
      "componentType": 5126,
      "count": 65532,
      "max": [
        0.99799066781997681,
        0.99633032083511353
      ],
      "min": [
        0.0020093212369829416,
        0.056475520133972168
      ],
      "type": "VEC2"
    },
    {
      "bufferView": 0,
      "componentType": 5125,
      "count": 356400,
      "max": [
        65531
      ],
      "min": [
        0
      ],
      "type": "SCALAR"
    },
    {
      "bufferView": 2,
      "byteOffset": 1572768,
      "componentType": 5126,
      "count": 48585,
      "max": [
        0.29605692625045776,
        0.18972468376159668,
        0.67821031808853149
      ],
      "min": [
        -0.31158936023712158,
        -0.14658224582672119,
        -0.91224497556686401
      ],
      "type": "VEC3"
    },
    {
      "bufferView": 2,
      "byteOffset": 2155788,
      "componentType": 5126,
      "count": 48585,
      "max": [
        0.9999811053276062,
        0.99999451637268066,
        0.99985742568969727
      ],
      "min": [
        -0.99999344348907471,
        -0.99996381998062134,
        -0.99979096651077271
      ],
      "type": "VEC3"
    },
    {
      "bufferView": 3,
      "byteOffset": 1048512,
      "componentType": 5126,
      "count": 48585,
      "max": [
        0.99886071681976318,
        0.99544757604598999,
        0.99937295913696289,
        -1
      ],
      "min": [
        -0.99992936849594116,
        -0.99961024522781372,
        -0.99995791912078857,
        -1
      ],
      "type": "VEC4"
    },
    {
      "bufferView": 1,
      "byteOffset": 524256,
      "componentType": 5126,
      "count": 48585,
      "max": [
        0.99799066781997681,
        0.99799066781997681
      ],
      "min": [
        0.0020093212369829416,
        0.11429154872894287
      ],
      "type": "VEC2"
    },
    {
      "bufferView": 0,
      "byteOffset": 1425600,
      "componentType": 5125,
      "count": 244692,
      "max": [
        48584
      ],
      "min": [
        0
      ],
      "type": "SCALAR"
    }
  ],
  "asset": {
    "extras": {
      "author": "HW3DPC (https://sketchfab.com/hw3dpc)",
      "license": "CC-BY-4.0 (http://creativecommons.org/licenses/by/4.0/)",
      "source": "https://sketchfab.com/models/39e85aa8be134cf79552c8a45ca33337",
      "title": "Person 25"
    },
    "generator": "Sketchfab-3.18.7",
    "version": "2.0"
  },
  "bufferViews": [
    {
      "buffer": 0,
      "byteLength": 2404368,
      "byteOffset": 0,
      "name": "floatBufferViews",
      "target": 34963
    },
    {
      "buffer": 0,
      "byteLength": 912936,
      "byteOffset": 2404368,
      "byteStride": 8,
      "name": "floatBufferViews",
      "target": 34962
    },
    {
      "buffer": 0,
      "byteLength": 2738808,
      "byteOffset": 3317304,
      "byteStride": 12,
      "name": "floatBufferViews",
      "target": 34962
    },
    {
      "buffer": 0,
      "byteLength": 1825872,
      "byteOffset": 6056112,
      "byteStride": 16,
      "name": "floatBufferViews",
      "target": 34962
    }
  ],
  "buffers": [
    {
      "byteLength": 7881984,
      "uri": "scene.bin"
    }
  ],
  "extensionsUsed": [
    "KHR_materials_unlit"
  ],
  "images": [
    {
      "uri": "textures/material_0_baseColor.jpeg"
    }
  ],
  "materials": [
    {
      "doubleSided": true,
      "emissiveFactor": [
        0,
        0,
        0
      ],
      "extensions": {
        "KHR_materials_unlit": {}
      },
      "name": "material_0",
      "pbrMetallicRoughness": {
        "baseColorFactor": [
          1,
          1,
          1,
          1
        ],
        "baseColorTexture": {
          "index": 0,
          "texCoord": 0
        },
        "metallicFactor": 0,
        "roughnessFactor": 1
      }
    }
  ],
  "meshes": [
    {
      "primitives": [
        {
          "attributes": {
            "NORMAL": 1,
            "POSITION": 0,
            "TANGENT": 2,
            "TEXCOORD_0": 3
          },
          "indices": 4,
          "material": 0,
          "mode": 4
        }
      ]
    },
    {
      "primitives": [
        {
          "attributes": {
            "NORMAL": 6,
            "POSITION": 5,
            "TANGENT": 7,
            "TEXCOORD_0": 8
          },
          "indices": 9,
          "material": 0,
          "mode": 4
        }
      ]
    }
  ],
  "nodes": [
    {
      "children": [
        1
      ],
      "name": "RootNode (gltf orientation matrix)",
      "rotation": [
        -0.70710678118654746,
        -0,
        -0,
        0.70710678118654757
      ]
    },
    {
      "children": [
        2
      ],
      "name": "RootNode (model correction matrix)"
    },
    {
      "children": [
        3,
        4
      ],
      "name": "model_mesh.obj.cleaner.gles"
    },
    {
      "mesh": 0,
      "name": ""
    },
    {
      "mesh": 1,
      "name": ""
    }
  ],
  "samplers": [
    {
      "magFilter": 9729,
      "minFilter": 9987,
      "wrapS": 10497,
      "wrapT": 10497
    }
  ],
  "scene": 0,
  "scenes": [
    {
      "name": "OSG_Scene",
      "nodes": [
        0
      ]
    }
  ],
  "textures": [
    {
      "sampler": 0,
      "source": 0
    }
  ]
}

