{
  "accessors": [
    {
      "bufferView": 2,
      "componentType": 5126,
      "count": 65532,
      "max": [
        59.847099304199219,
        9.379969596862793,
        -72.878990173339844
      ],
      "min": [
        -67.399147033691406,
        -59.046108245849609,
        -74.023880004882812
      ],
      "type": "VEC3"
    },
    {
      "bufferView": 2,
      "byteOffset": 786384,
      "componentType": 5126,
      "count": 65532,
      "max": [
        0.58104431629180908,
        0.36878642439842224,
        -0.57614463567733765
      ],
      "min": [
        -0.80916750431060791,
        -0.51836550235748291,
        -1
      ],
      "type": "VEC3"
    },
    {
      "bufferView": 1,
      "componentType": 5126,
      "count": 65532,
      "max": [
        0.9987800121307373,
        0.87182998657226562
      ],
      "min": [
        0.31615999341011047,
        0.66527998447418213
      ],
      "type": "VEC2"
    },
    {
      "bufferView": 0,
      "componentType": 5125,
      "count": 65532,
      "max": [
        65531
      ],
      "min": [
        0
      ],
      "type": "SCALAR"
    },
    {
      "bufferView": 2,
      "byteOffset": 1572768,
      "componentType": 5126,
      "count": 65532,
      "max": [
        33.195148468017578,
        46.543399810791016,
        -72.967422485351562
      ],
      "min": [
        -67.413276672363281,
        7.7174901962280273,
        -74.024246215820312
      ],
      "type": "VEC3"
    },
    {
      "bufferView": 2,
      "byteOffset": 2359152,
      "componentType": 5126,
      "count": 65532,
      "max": [
        0.77831465005874634,
        0.69446372985839844,
        -0.36814391613006592
      ],
      "min": [
        -0.82177591323852539,
        -0.64352309703826904,
        -1
      ],
      "type": "VEC3"
    },
    {
      "bufferView": 1,
      "byteOffset": 524256,
      "componentType": 5126,
      "count": 65532,
      "max": [
        0.9987800121307373,
        0.87914997339248657
      ],
      "min": [
        0.31615999341011047,
        0.66527998447418213
      ],
      "type": "VEC2"
    },
    {
      "bufferView": 0,
      "byteOffset": 262128,
      "componentType": 5125,
      "count": 65532,
      "max": [
        65531
      ],
      "min": [
        0
      ],
      "type": "SCALAR"
    },
    {
      "bufferView": 2,
      "byteOffset": 3145536,
      "componentType": 5126,
      "count": 65532,
      "max": [
        64.968231201171875,
        68.069511413574219,
        -65.568702697753906
      ],
      "min": [
        -67.974021911621094,
        -64.202903747558594,
        -74.024147033691406
      ],
      "type": "VEC3"
    },
    {
      "bufferView": 2,
      "byteOffset": 3931920,
      "componentType": 5126,
      "count": 65532,
      "max": [
        0.97032588720321655,
        0.99987173080444336,
        0.9625551700592041
      ],
      "min": [
        -0.99996137619018555,
        -0.97229552268981934,
        -1
      ],
      "type": "VEC3"
    },
    {
      "bufferView": 1,
      "byteOffset": 1048512,
      "componentType": 5126,
      "count": 65532,
      "max": [
        0.9987800121307373,
        0.91109001636505127
      ],
      "min": [
        0.0038300000596791506,
        0.053479999303817749
      ],
      "type": "VEC2"
    },
    {
      "bufferView": 0,
      "byteOffset": 524256,
      "componentType": 5125,
      "count": 85854,
      "max": [
        65531
      ],
      "min": [
        0
      ],
      "type": "SCALAR"
    },
    {
      "bufferView": 2,
      "byteOffset": 4718304,
      "componentType": 5126,
      "count": 65532,
      "max": [
        67.974021911621094,
        68.056282043457031,
        -46.867938995361328
      ],
      "min": [
        -67.937530517578125,
        -68.069511413574219,
        -71.818809509277344
      ],
      "type": "VEC3"
    },
    {
      "bufferView": 2,
      "byteOffset": 5504688,
      "componentType": 5126,
      "count": 65532,
      "max": [
        0.99993866682052612,
        0.99885249137878418,
        0.99999988079071045
      ],
      "min": [
        -0.99400961399078369,
        -0.99987190961837769,
        -0.999614417552948
      ],
      "type": "VEC3"
    },
    {
      "bufferView": 1,
      "byteOffset": 1572768,
      "componentType": 5126,
      "count": 65532,
      "max": [
        0.9987800121307373,
        0.99312001466751099
      ],
      "min": [
        0.0037299999967217445,
        0.0037700000684708357
      ],
      "type": "VEC2"
    },
    {
      "bufferView": 0,
      "byteOffset": 867672,
      "componentType": 5125,
      "count": 295725,
      "max": [
        65531
      ],
      "min": [
        0
      ],
      "type": "SCALAR"
    },
    {
      "bufferView": 2,
      "byteOffset": 6291072,
      "componentType": 5126,
      "count": 22764,
      "max": [
        67.9544677734375,
        28.358390808105469,
        -39.192508697509766
      ],
      "min": [
        -41.040420532226562,
        -68.017532348632812,
        -65.791221618652344
      ],
      "type": "VEC3"
    },
    {
      "bufferView": 2,
      "byteOffset": 6564240,
      "componentType": 5126,
      "count": 22764,
      "max": [
        0.9999498724937439,
        0.99992501735687256,
        0.9999995231628418
      ],
      "min": [
        -0.99997246265411377,
        -0.99931186437606812,
        -0.99307441711425781
      ],
      "type": "VEC3"
    },
    {
      "bufferView": 1,
      "byteOffset": 2097024,
      "componentType": 5126,
      "count": 22764,
      "max": [
        0.9987800121307373,
        0.9950600266456604
      ],
      "min": [
        0.0037199999205768108,
        0.0076399999670684338
      ],
      "type": "VEC2"
    },
    {
      "bufferView": 0,
      "byteOffset": 2050572,
      "componentType": 5125,
      "count": 100977,
      "max": [
        22763
      ],
      "min": [
        0
      ],
      "type": "SCALAR"
    }
  ],
  "asset": {
    "extras": {
      "author": "ronenh (https://sketchfab.com/ronenh)",
      "license": "CC-BY-ND-4.0 (http://creativecommons.org/licenses/by-nd/4.0/)",
      "source": "https://sketchfab.com/3d-models/used-paddle-ball-f509fb43ad4647238cb4c74b38ab9c8a",
      "title": "Used Paddle & Ball"
    },
    "generator": "Sketchfab-8.7.0",
    "version": "2.0"
  },
  "bufferViews": [
    {
      "buffer": 0,
      "byteLength": 2454480,
      "byteOffset": 0,
      "name": "floatBufferViews",
      "target": 34963
    },
    {
      "buffer": 0,
      "byteLength": 2279136,
      "byteOffset": 2454480,
      "byteStride": 8,
      "name": "floatBufferViews",
      "target": 34962
    },
    {
      "buffer": 0,
      "byteLength": 6837408,
      "byteOffset": 4733616,
      "byteStride": 12,
      "name": "floatBufferViews",
      "target": 34962
    }
  ],
  "buffers": [
    {
      "byteLength": 11571024,
      "uri": "scene.bin"
    }
  ],
  "extensionsUsed": [
    "KHR_materials_unlit"
  ],
  "images": [
    {
      "uri": "textures/material0_baseColor.jpeg"
    }
  ],
  "materials": [
    {
      "doubleSided": true,
      "emissiveFactor": [
        0,
        0,
        0
      ],
      "emissiveTexture": {
        "index": 0,
        "texCoord": 0
      },
      "extensions": {
        "KHR_materials_unlit": {}
      },
      "name": "material0",
      "pbrMetallicRoughness": {
        "baseColorFactor": [
          1,
          1,
          1,
          1
        ],
        "baseColorTexture": {
          "index": 0,
          "texCoord": 0
        },
        "metallicFactor": 0,
        "roughnessFactor": 1
      }
    }
  ],
  "meshes": [
    {
      "primitives": [
        {
          "attributes": {
            "NORMAL": 1,
            "POSITION": 0,
            "TEXCOORD_0": 2
          },
          "indices": 3,
          "material": 0,
          "mode": 4
        }
      ]
    },
    {
      "primitives": [
        {
          "attributes": {
            "NORMAL": 5,
            "POSITION": 4,
            "TEXCOORD_0": 6
          },
          "indices": 7,
          "material": 0,
          "mode": 4
        }
      ]
    },
    {
      "primitives": [
        {
          "attributes": {
            "NORMAL": 9,
            "POSITION": 8,
            "TEXCOORD_0": 10
          },
          "indices": 11,
          "material": 0,
          "mode": 4
        }
      ]
    },
    {
      "primitives": [
        {
          "attributes": {
            "NORMAL": 13,
            "POSITION": 12,
            "TEXCOORD_0": 14
          },
          "indices": 15,
          "material": 0,
          "mode": 4
        }
      ]
    },
    {
      "primitives": [
        {
          "attributes": {
            "NORMAL": 17,
            "POSITION": 16,
            "TEXCOORD_0": 18
          },
          "indices": 19,
          "material": 0,
          "mode": 4
        }
      ]
    }
  ],
  "nodes": [
    {
      "children": [
        1
      ],
      "name": "RootNode (gltf orientation matrix)",
      "rotation": [
        -0.70710678118654746,
        -0,
        -0,
        0.70710678118654757
      ]
    },
    {
      "children": [
        2
      ],
      "name": "RootNode (model correction matrix)"
    },
    {
      "children": [
        3,
        4,
        5,
        6,
        7
      ],
      "name": "model_Used Paddle & Ball_20200330_151807175.obj.cleaner.materialmerger.gles"
    },
    {
      "mesh": 0,
      "name": ""
    },
    {
      "mesh": 1,
      "name": ""
    },
    {
      "mesh": 2,
      "name": ""
    },
    {
      "mesh": 3,
      "name": ""
    },
    {
      "mesh": 4,
      "name": ""
    }
  ],
  "samplers": [
    {
      "magFilter": 9729,
      "minFilter": 9987,
      "wrapS": 10497,
      "wrapT": 10497
    }
  ],
  "scene": 0,
  "scenes": [
    {
      "name": "OSG_Scene",
      "nodes": [
        0
      ]
    }
  ],
  "textures": [
    {
      "sampler": 0,
      "source": 0
    }
  ]
}

