{
  "accessors": [
    {
      "bufferView": 2,
      "componentType": 5126,
      "count": 65532,
      "max": [
        0.68078762292861938,
        0.12224817276000977,
        0.77148193120956421
      ],
      "min": [
        -0.13714167475700378,
        -0.31977033615112305,
        -0.39776051044464111
      ],
      "type": "VEC3"
    },
    {
      "bufferView": 2,
      "byteOffset": 786384,
      "componentType": 5126,
      "count": 65532,
      "max": [
        0.99995654821395874,
        0.99999314546585083,
        0.99964755773544312
      ],
      "min": [
        -0.99982494115829468,
        -0.99999886751174927,
        -0.99972683191299438
      ],
      "type": "VEC3"
    },
    {
      "bufferView": 3,
      "componentType": 5126,
      "count": 65532,
      "max": [
        0.99990618228912354,
        0.9996451735496521,
        0.99994367361068726,
        1
      ],
      "min": [
        -0.99929559230804443,
        -0.99998897314071655,
        -1,
        -1
      ],
      "type": "VEC4"
    },
    {
      "bufferView": 1,
      "componentType": 5126,
      "count": 65532,
      "max": [
        0.909423828125,
        0.999267578125
      ],
      "min": [
        0.000732421875,
        0.121826171875
      ],
      "type": "VEC2"
    },
    {
      "bufferView": 0,
      "componentType": 5125,
      "count": 244755,
      "max": [
        65531
      ],
      "min": [
        0
      ],
      "type": "SCALAR"
    },
    {
      "bufferView": 2,
      "byteOffset": 1572768,
      "componentType": 5126,
      "count": 65532,
      "max": [
        0.47914648056030273,
        0.23775696754455566,
        0.77109402418136597
      ],
      "min": [
        -0.73149430751800537,
        -0.29877579212188721,
        -1.0342035293579102
      ],
      "type": "VEC3"
    },
    {
      "bufferView": 2,
      "byteOffset": 2359152,
      "componentType": 5126,
      "count": 65532,
      "max": [
        0.99994915723800659,
        0.99999129772186279,
        0.99978363513946533
      ],
      "min": [
        -0.99999403953552246,
        -0.99992150068283081,
        -0.99957287311553955
      ],
      "type": "VEC3"
    },
    {
      "bufferView": 3,
      "byteOffset": 1048512,
      "componentType": 5126,
      "count": 65532,
      "max": [
        0.99988889694213867,
        0.9999462366104126,
        0.99971938133239746,
        1
      ],
      "min": [
        -0.99999552965164185,
        -0.99993419647216797,
        -0.9999961256980896,
        -1
      ],
      "type": "VEC4"
    },
    {
      "bufferView": 1,
      "byteOffset": 524256,
      "componentType": 5126,
      "count": 65532,
      "max": [
        0.874267578125,
        0.964111328125
      ],
      "min": [
        0.031982421875,
        0.156982421875
      ],
      "type": "VEC2"
    },
    {
      "bufferView": 0,
      "byteOffset": 979020,
      "componentType": 5125,
      "count": 234654,
      "max": [
        65531
      ],
      "min": [
        0
      ],
      "type": "SCALAR"
    },
    {
      "bufferView": 2,
      "byteOffset": 3145536,
      "componentType": 5126,
      "count": 56457,
      "max": [
        0.32279908657073975,
        0.3223259449005127,
        0.38682156801223755
      ],
      "min": [
        -0.72872406244277954,
        -0.10855400562286377,
        -1.0359468460083008
      ],
      "type": "VEC3"
    },
    {
      "bufferView": 2,
      "byteOffset": 3823020,
      "componentType": 5126,
      "count": 56457,
      "max": [
        0.99992662668228149,
        0.99999415874481201,
        0.99886906147003174
      ],
      "min": [
        -0.99998921155929565,
        -0.99997979402542114,
        -0.99991375207901001
      ],
      "type": "VEC3"
    },
    {
      "bufferView": 3,
      "byteOffset": 2097024,
      "componentType": 5126,
      "count": 56457,
      "max": [
        0.99998348951339722,
        0.99997681379318237,
        0.99997681379318237,
        1
      ],
      "min": [
        -1,
        -0.99993044137954712,
        -0.99999809265136719,
        -1
      ],
      "type": "VEC4"
    },
    {
      "bufferView": 1,
      "byteOffset": 1048512,
      "componentType": 5126,
      "count": 56457,
      "max": [
        0.835205078125,
        0.925048828125
      ],
      "min": [
        0.071044921875,
        0.192138671875
      ],
      "type": "VEC2"
    },
    {
      "bufferView": 0,
      "byteOffset": 1917636,
      "componentType": 5125,
      "count": 117987,
      "max": [
        56456
      ],
      "min": [
        0
      ],
      "type": "SCALAR"
    }
  ],
  "asset": {
    "extras": {
      "author": "TheDarkSunProject (https://sketchfab.com/darksunproject)",
      "license": "CC-BY-4.0 (http://creativecommons.org/licenses/by/4.0/)",
      "source": "https://sketchfab.com/models/e8a23c540a9b459f9b91187db45b7dd1",
      "title": "Person"
    },
    "generator": "Sketchfab-3.18.2",
    "version": "2.0"
  },
  "bufferViews": [
    {
      "buffer": 0,
      "byteLength": 2389584,
      "byteOffset": 0,
      "name": "floatBufferViews",
      "target": 34963
    },
    {
      "buffer": 0,
      "byteLength": 1500168,
      "byteOffset": 2389584,
      "byteStride": 8,
      "name": "floatBufferViews",
      "target": 34962
    },
    {
      "buffer": 0,
      "byteLength": 4500504,
      "byteOffset": 3889752,
      "byteStride": 12,
      "name": "floatBufferViews",
      "target": 34962
    },
    {
      "buffer": 0,
      "byteLength": 3000336,
      "byteOffset": 8390256,
      "byteStride": 16,
      "name": "floatBufferViews",
      "target": 34962
    }
  ],
  "buffers": [
    {
      "byteLength": 11390592,
      "uri": "scene.bin"
    }
  ],
  "extensionsUsed": [
    "KHR_materials_unlit"
  ],
  "images": [
    {
      "uri": "textures/material_0_baseColor.jpeg"
    }
  ],
  "materials": [
    {
      "doubleSided": true,
      "emissiveFactor": [
        0,
        0,
        0
      ],
      "extensions": {
        "KHR_materials_unlit": {}
      },
      "name": "material_0",
      "pbrMetallicRoughness": {
        "baseColorFactor": [
          1,
          1,
          1,
          1
        ],
        "baseColorTexture": {
          "index": 0,
          "texCoord": 0
        },
        "metallicFactor": 0,
        "roughnessFactor": 1
      }
    }
  ],
  "meshes": [
    {
      "primitives": [
        {
          "attributes": {
            "NORMAL": 1,
            "POSITION": 0,
            "TANGENT": 2,
            "TEXCOORD_0": 3
          },
          "indices": 4,
          "material": 0,
          "mode": 4
        }
      ]
    },
    {
      "primitives": [
        {
          "attributes": {
            "NORMAL": 6,
            "POSITION": 5,
            "TANGENT": 7,
            "TEXCOORD_0": 8
          },
          "indices": 9,
          "material": 0,
          "mode": 4
        }
      ]
    },
    {
      "primitives": [
        {
          "attributes": {
            "NORMAL": 11,
            "POSITION": 10,
            "TANGENT": 12,
            "TEXCOORD_0": 13
          },
          "indices": 14,
          "material": 0,
          "mode": 4
        }
      ]
    }
  ],
  "nodes": [
    {
      "children": [
        1
      ],
      "name": "RootNode (gltf orientation matrix)",
      "rotation": [
        -0.70710678118654746,
        -0,
        -0,
        0.70710678118654757
      ]
    },
    {
      "children": [
        2
      ],
      "name": "RootNode (model correction matrix)"
    },
    {
      "children": [
        3,
        4,
        5
      ],
      "name": "model_mesh.obj.cleaner"
    },
    {
      "mesh": 0,
      "name": ""
    },
    {
      "mesh": 1,
      "name": ""
    },
    {
      "mesh": 2,
      "name": ""
    }
  ],
  "samplers": [
    {
      "magFilter": 9729,
      "minFilter": 9987,
      "wrapS": 10497,
      "wrapT": 10497
    }
  ],
  "scene": 0,
  "scenes": [
    {
      "name": "OSG_Scene",
      "nodes": [
        0
      ]
    }
  ],
  "textures": [
    {
      "sampler": 0,
      "source": 0
    }
  ]
}

